<svg width="124" height="23" viewBox="0 0 124 23" fill="none" xmlns="http://www.w3.org/2000/svg">
<g clip-path="url(#clip0_16_2220)">
<path d="M17.5353 2.75323H1.02603C0.466657 2.75323 -7.44109e-06 3.22461 -7.44109e-06 3.79183V5.65378C-7.44109e-06 6.23514 0.466657 6.69395 1.02681 6.69395H17.5345C18.108 6.69395 18.5613 6.221 18.5747 5.65456V3.80519C18.5747 3.22539 18.108 2.75244 17.5353 2.75244V2.75323ZM17.5353 13.1173H1.02603C0.890876 13.1175 0.757121 13.1446 0.632511 13.1969C0.507901 13.2492 0.394916 13.3258 0.300103 13.4221C0.10708 13.6178 -0.00102899 13.8818 -0.000793072 14.1567V16.0186C-0.000793072 16.6 0.465872 17.058 1.02603 17.058H17.5337C18.1072 17.058 18.5605 16.5992 18.5739 16.0194V14.1567C18.5739 13.5761 18.108 13.1173 17.5353 13.1173ZM10.3208 18.2867H1.02681C0.754198 18.2867 0.492583 18.3959 0.300889 18.5908C0.107866 18.7865 -0.000243357 19.0504 -7.44109e-06 19.3253V21.1873C-7.44109e-06 21.7686 0.466657 22.2267 1.02681 22.2267H10.3075C10.881 22.2267 11.3343 21.7553 11.3343 21.188V19.3253C11.3377 19.1901 11.3141 19.0555 11.2647 18.9295C11.2153 18.8035 11.1412 18.6887 11.0468 18.5919C10.9523 18.495 10.8394 18.418 10.7147 18.3655C10.5901 18.3129 10.4561 18.2867 10.3208 18.2867ZM18.5747 7.93446H1.02681C0.754198 7.93446 0.492583 8.04445 0.300889 8.2385C0.107674 8.43443 -0.000450231 8.69868 -7.44109e-06 8.97385V10.8358C-7.44109e-06 11.4164 0.466657 11.8752 1.02681 11.8752H18.5621C19.1356 11.8752 19.5881 11.403 19.5881 10.8358V8.97385C19.5904 8.8389 19.5659 8.70484 19.5161 8.57939C19.4663 8.45395 19.3922 8.33961 19.298 8.24298C19.2037 8.14634 19.0913 8.06933 18.9672 8.01638C18.843 7.96342 18.7096 7.93558 18.5747 7.93446Z" fill="#00C3F7"/>
<path d="M37.7884 6.94996C37.2812 6.42498 36.6737 6.00738 36.0019 5.72202C35.3263 5.43806 34.601 5.29118 33.8682 5.28992C33.154 5.27343 32.446 5.42606 31.802 5.73537C31.37 5.94199 30.9803 6.23032 30.6551 6.58543V6.26253C30.6525 6.09817 30.5912 5.94016 30.4822 5.81708C30.4284 5.75287 30.3611 5.70138 30.285 5.66633C30.2089 5.63128 30.126 5.61354 30.0423 5.61439H27.735C27.651 5.61217 27.5677 5.62929 27.4914 5.66444C27.4151 5.69959 27.3479 5.75181 27.295 5.81708C27.1804 5.93671 27.118 6.09691 27.1214 6.26253V21.6342C27.1214 21.796 27.1882 21.9579 27.2942 22.0788C27.3521 22.1361 27.4209 22.1811 27.4964 22.2113C27.572 22.2416 27.6528 22.2563 27.7342 22.2548H30.0682C30.2285 22.2548 30.3746 22.1873 30.4948 22.0788C30.5577 22.0238 30.6072 21.9552 30.6396 21.8781C30.672 21.8011 30.6864 21.7176 30.6818 21.6342V16.3838C31.0149 16.7483 31.4415 17.0186 31.9081 17.1804C32.5217 17.4098 33.1619 17.5183 33.8148 17.5183C34.5611 17.5183 35.2948 17.3823 35.9752 17.0862C36.6584 16.8013 37.2756 16.3788 37.7884 15.8449C38.3204 15.2884 38.7374 14.6325 39.0155 13.9146C39.3314 13.1112 39.4854 12.2534 39.4688 11.3903C39.4787 10.5237 39.3249 9.66306 39.0155 8.85354C38.7284 8.148 38.312 7.50237 37.7876 6.94996H37.7884ZM35.6821 12.5099C35.5601 12.8358 35.3742 13.1342 35.1354 13.3874C34.8987 13.6418 34.6116 13.844 34.2924 13.981C33.9731 14.1181 33.6287 14.187 33.2813 14.1833C32.9215 14.1833 32.5751 14.1157 32.2553 13.9672C31.9397 13.8311 31.6541 13.6341 31.4147 13.3874C31.1764 13.1313 30.9866 12.8339 30.8546 12.5099C30.5881 11.8149 30.5881 11.0459 30.8546 10.351C30.9748 10.0273 31.1751 9.7303 31.4147 9.48676C31.656 9.23898 31.941 9.0379 32.2553 8.89361C32.5758 8.74247 32.9272 8.66848 33.2813 8.67756C33.6419 8.67756 33.9884 8.74512 34.3215 8.89282C34.6279 9.04209 34.9083 9.23064 35.1487 9.47419C35.3883 9.7303 35.562 10.0131 35.6955 10.3376C35.9511 11.04 35.9463 11.8107 35.6821 12.5099ZM52.029 5.6136H49.7091C49.6288 5.61329 49.5492 5.62993 49.4757 5.66242C49.4022 5.6949 49.3364 5.74252 49.2825 5.80215C49.2228 5.86274 49.1756 5.93452 49.1436 6.01339C49.1117 6.09226 49.0956 6.17666 49.0964 6.26175V6.54457C48.8046 6.20528 48.4459 5.92981 48.0429 5.73537C47.4119 5.42887 46.7173 5.27622 46.016 5.28992C44.5221 5.29248 43.0894 5.88419 42.0291 6.9366C41.4824 7.49171 41.0477 8.14678 40.7485 8.86611C40.4156 9.66992 40.2525 10.5339 40.2693 11.4037C40.255 12.2733 40.4181 13.1367 40.7485 13.9413C41.0462 14.6582 41.4761 15.3128 42.0157 15.8708C42.5312 16.402 43.1492 16.8229 43.8323 17.1081C44.5153 17.3933 45.2491 17.5369 45.9893 17.53C46.6963 17.5442 47.3892 17.3957 48.0295 17.0846C48.4294 16.8827 48.8025 16.6132 49.0964 16.2754V16.5857C49.0964 16.7476 49.1623 16.9094 49.2825 17.0312C49.4027 17.1388 49.5497 17.2064 49.7091 17.2064H52.029C52.1921 17.2033 52.3484 17.141 52.469 17.0312C52.5267 16.9727 52.5719 16.903 52.6018 16.8264C52.6316 16.7498 52.6455 16.6679 52.6426 16.5857V6.26175C52.6462 6.09624 52.584 5.93605 52.4697 5.81629C52.4169 5.75103 52.3497 5.6988 52.2734 5.66365C52.1971 5.62851 52.113 5.61138 52.029 5.6136ZM48.896 12.4965C48.774 12.8225 48.5881 13.1208 48.3492 13.3741C48.1094 13.6173 47.8299 13.8178 47.5228 13.9672C46.8692 14.2642 46.1087 14.2642 45.4559 13.9672C45.1415 13.8229 44.8566 13.6218 44.6153 13.3741C44.3767 13.1208 44.191 12.8225 44.0693 12.4965C43.816 11.8038 43.816 11.0437 44.0693 10.351C44.1887 10.0273 44.3757 9.74366 44.616 9.48676C44.8557 9.244 45.1353 9.04209 45.4559 8.89361C45.7805 8.74693 46.1327 8.67107 46.4889 8.67107C46.8452 8.67107 47.1973 8.74693 47.522 8.89361C47.8292 9.04209 48.1096 9.23064 48.3492 9.4734C48.5763 9.7303 48.7625 10.0131 48.896 10.3376C49.1631 11.0392 49.1631 11.8083 48.896 12.4965ZM75.1643 11.1059C74.83 10.8116 74.4462 10.5788 74.0307 10.4185C73.5905 10.2429 73.1353 10.1072 72.6708 10.0131L70.8969 9.66274C70.4436 9.58182 70.1239 9.46005 69.9502 9.31156C69.8781 9.26136 69.8188 9.19486 69.7772 9.11747C69.7356 9.04008 69.7128 8.95396 69.7106 8.86611C69.7106 8.67756 69.8175 8.51572 70.0437 8.38059C70.3501 8.21875 70.684 8.13705 71.0304 8.16454C71.4837 8.16454 71.937 8.25882 72.3503 8.43401C72.7509 8.61 73.1508 8.81269 73.5106 9.05466C74.0307 9.37913 74.4706 9.32492 74.777 8.96039L75.631 7.98935C75.7904 7.82672 75.8839 7.61146 75.8981 7.38206C75.8909 7.26386 75.8586 7.14855 75.8033 7.04383C75.748 6.93911 75.6711 6.84738 75.5775 6.77476C75.2169 6.46444 74.6442 6.12662 73.8838 5.80294C73.1241 5.47926 72.1633 5.30328 71.0304 5.30328C70.339 5.29401 69.6504 5.39424 68.9902 5.60024C68.4259 5.77431 67.8974 6.0484 67.43 6.40944C67.009 6.7391 66.6672 7.15897 66.4299 7.63817C66.2039 8.10537 66.0855 8.61734 66.0835 9.13637C66.0835 10.0948 66.3765 10.8773 66.95 11.4571C67.5235 12.0377 68.284 12.4156 69.2306 12.6041L71.0705 13.0095C71.4712 13.0771 71.8703 13.1981 72.2442 13.3741C72.4438 13.455 72.5773 13.6569 72.5773 13.8863C72.5773 14.089 72.4705 14.2775 72.2442 14.4402C72.0172 14.602 71.644 14.7096 71.164 14.7096C70.6608 14.7182 70.1627 14.6073 69.7106 14.386C69.2821 14.1792 68.8831 13.916 68.5244 13.6035C68.367 13.4711 68.1856 13.3702 67.9902 13.3065C67.7773 13.2389 67.5235 13.3065 67.2438 13.5359L66.2304 14.305C66.0925 14.4045 65.9855 14.5409 65.9219 14.6985C65.8582 14.8562 65.8404 15.0286 65.8706 15.1959C65.9232 15.5338 66.2037 15.87 66.7238 16.262C68.002 17.125 69.5152 17.5727 71.0572 17.5442C71.7749 17.5535 72.4899 17.4534 73.1775 17.2472C73.7672 17.0689 74.3219 16.7904 74.8171 16.4239C75.257 16.0861 75.631 15.654 75.8839 15.1551C76.1279 14.6643 76.2556 14.124 76.2571 13.576C76.2682 13.0834 76.1681 12.5946 75.964 12.1461C75.7625 11.7541 75.4916 11.4012 75.1643 11.1059ZM85.2978 13.9138C85.2458 13.8216 85.1729 13.743 85.0849 13.6843C84.9968 13.6256 84.8962 13.5885 84.7911 13.576C84.5782 13.576 84.3645 13.6435 84.1909 13.7645C83.9085 13.9502 83.5818 14.0576 83.2443 14.0756C83.1374 14.0756 83.018 14.0623 82.9112 14.0348C82.7955 14.0116 82.6891 13.9553 82.6048 13.8729C82.4983 13.7737 82.4121 13.6547 82.351 13.5225C82.2757 13.3245 82.2395 13.1137 82.2442 12.9019V8.69092H85.2578C85.4338 8.68674 85.6012 8.61401 85.7244 8.48822C85.7869 8.43198 85.837 8.36331 85.8715 8.28661C85.906 8.20992 85.9241 8.12687 85.9247 8.04277V6.26253C85.9259 6.17621 85.9086 6.09064 85.8741 6.01152C85.8395 5.93241 85.7885 5.86157 85.7244 5.80372C85.6035 5.68443 85.441 5.61681 85.2711 5.61517H82.2575V2.73976C82.2624 2.65427 82.2482 2.56877 82.216 2.48942C82.1838 2.41008 82.1344 2.33887 82.0713 2.28096C81.9557 2.17135 81.8033 2.10887 81.644 2.10576H79.2974C79.1292 2.10249 78.9664 2.1654 78.8441 2.28096C78.7198 2.40167 78.6481 2.56653 78.6445 2.73976V5.61517H77.3106C77.2267 5.61286 77.1434 5.62986 77.0671 5.66487C76.9908 5.69988 76.9236 5.75196 76.8706 5.81708C76.7617 5.94016 76.7004 6.09817 76.6978 6.26253V8.04356C76.6978 8.2054 76.7638 8.36802 76.8706 8.48901C76.9215 8.55657 76.9883 8.61046 77.065 8.64584C77.1418 8.68122 77.2262 8.69698 77.3106 8.6917H78.6445V13.6985C78.6315 14.2929 78.7497 14.8828 78.991 15.4261C79.2059 15.8701 79.51 16.2651 79.8842 16.5865C80.2574 16.8968 80.6973 17.1129 81.1506 17.248C81.6214 17.3941 82.1119 17.4669 82.6048 17.4641C83.2529 17.4628 83.8965 17.3577 84.5114 17.1529C85.0818 16.9627 85.5984 16.639 86.0182 16.2086C86.1457 16.0775 86.2234 15.906 86.2379 15.7237C86.2524 15.5413 86.2028 15.3597 86.0976 15.2101L85.2978 13.9138ZM98.005 5.6136H95.6851C95.6047 5.61329 95.5252 5.62993 95.4517 5.66242C95.3782 5.6949 95.3124 5.74252 95.2585 5.80215C95.1986 5.86265 95.1512 5.9344 95.1191 6.01327C95.087 6.09215 95.0709 6.17659 95.0715 6.26175V6.54457C94.7799 6.20507 94.4213 5.92956 94.018 5.73537C93.3831 5.42744 92.6841 5.27476 91.9786 5.28992C91.2406 5.28997 90.5098 5.43542 89.828 5.71796C89.1462 6.0005 88.5268 6.4146 88.005 6.9366C87.4542 7.48831 87.0189 8.14425 86.7245 8.86611C86.3928 9.66535 86.2294 10.5244 86.2445 11.3896C86.2306 12.2592 86.3939 13.1226 86.7245 13.9271C87.0183 14.6421 87.4582 15.3036 87.9917 15.8567C88.5057 16.387 89.1213 16.8085 89.8016 17.096C90.482 17.3835 91.2133 17.5311 91.9519 17.53C92.6557 17.5432 93.3533 17.3954 93.9913 17.0979C94.392 16.896 94.7652 16.6266 95.0582 16.2887V16.5857C95.0598 16.7507 95.1242 16.9078 95.2389 17.0233C95.3532 17.1392 95.5089 17.205 95.6717 17.2064H98.005C98.1667 17.2066 98.3219 17.1429 98.4369 17.0291C98.5518 16.9153 98.6171 16.7608 98.6185 16.5991V6.26253C98.6203 6.18052 98.6058 6.09897 98.576 6.02253C98.5462 5.9461 98.5017 5.87629 98.4449 5.81708C98.3921 5.75177 98.3249 5.69951 98.2486 5.66436C98.1723 5.6292 98.089 5.61132 98.005 5.6136ZM94.872 12.4965C94.7497 12.8224 94.5639 13.1207 94.3252 13.3741C94.0852 13.6173 93.8054 13.8179 93.498 13.9672C93.1733 14.1199 92.8172 14.1939 92.4586 14.1833C92.098 14.1833 91.7516 14.1023 91.4318 13.9672C91.1175 13.8229 90.8325 13.6218 90.5912 13.3741C90.3526 13.1207 90.1667 12.8224 90.0444 12.4965C89.7915 11.8037 89.7915 11.0438 90.0444 10.351C90.167 10.0292 90.3529 9.73527 90.5912 9.48676C90.8316 9.244 91.1113 9.04209 91.4318 8.89361C91.7542 8.74728 92.1047 8.67353 92.4586 8.67756C92.8184 8.67756 93.1649 8.74512 93.498 8.89282C93.8051 9.04209 94.0848 9.23064 94.3252 9.47419C94.5648 9.7303 94.7518 10.0131 94.872 10.3376C95.1516 11.0301 95.1516 11.804 94.872 12.4965ZM110.74 13.7653L109.406 12.7393C109.153 12.5374 108.912 12.4832 108.699 12.5641C108.512 12.6446 108.344 12.7643 108.206 12.9153C107.914 13.2685 107.573 13.5776 107.193 13.8329C106.793 14.0623 106.352 14.1707 105.899 14.1432C105.378 14.1491 104.868 13.991 104.441 13.6915C104.013 13.3902 103.688 12.9633 103.512 12.4698C103.391 12.1319 103.328 11.776 103.326 11.4171C103.326 11.0525 103.379 10.688 103.512 10.3376C103.632 10.0131 103.806 9.71695 104.046 9.4734C104.286 9.23064 104.566 9.02795 104.872 8.89282C105.198 8.74262 105.553 8.66464 105.912 8.6642C106.365 8.64789 106.814 8.76011 107.206 8.98788C107.589 9.23918 107.931 9.54878 108.219 9.9055C108.352 10.054 108.512 10.175 108.699 10.2567C108.912 10.3376 109.153 10.2834 109.392 10.0807L110.726 9.0688C110.886 8.96039 111.019 8.79855 111.073 8.61C111.111 8.50907 111.125 8.401 111.116 8.29364C111.107 8.18628 111.074 8.08233 111.019 7.98935C110.505 7.18617 109.799 6.52298 108.966 6.05905C108.086 5.56018 107.032 5.30328 105.859 5.30328C105.031 5.3035 104.212 5.46384 103.445 5.77544C102.713 6.07434 102.047 6.51486 101.485 7.07173C100.922 7.62344 100.477 8.28463 100.179 9.0146C99.5518 10.5595 99.5518 12.288 100.179 13.8329C100.485 14.5611 100.925 15.2226 101.485 15.7624C102.652 16.906 104.225 17.5415 105.859 17.53C107.032 17.53 108.086 17.2739 108.966 16.7743C109.806 16.3098 110.517 15.6417 111.033 14.8314C111.087 14.7409 111.12 14.6391 111.129 14.5339C111.139 14.4287 111.124 14.3228 111.086 14.2241C111.023 14.038 110.901 13.8771 110.74 13.7653ZM123.086 16.167L119.42 10.7823L122.554 6.63963C122.627 6.5451 122.677 6.43481 122.7 6.31752C122.723 6.20023 122.718 6.07918 122.686 5.96399C122.633 5.80294 122.487 5.62696 122.1 5.62696H119.62C119.477 5.63099 119.337 5.66302 119.206 5.72123C119.053 5.79834 118.927 5.92101 118.846 6.07241L116.339 9.58182H115.739V1.28163C115.741 1.19967 115.727 1.11814 115.697 1.0417C115.668 0.965268 115.623 0.895429 115.566 0.836181C115.508 0.779254 115.44 0.734446 115.364 0.704368C115.289 0.67429 115.208 0.659542 115.126 0.660985H112.806C112.643 0.664111 112.486 0.726373 112.366 0.836181C112.304 0.892093 112.255 0.961029 112.223 1.03804C112.191 1.11506 112.176 1.19825 112.18 1.28163V16.5857C112.18 16.7609 112.246 16.9235 112.366 17.0312C112.424 17.0882 112.493 17.133 112.568 17.1631C112.644 17.1932 112.724 17.2079 112.806 17.2064H115.126C115.289 17.2032 115.446 17.141 115.566 17.0312C115.623 16.9719 115.668 16.9021 115.697 16.8256C115.727 16.7492 115.741 16.6677 115.739 16.5857V12.5374H116.406L119.139 16.7342C119.3 17.0312 119.607 17.2197 119.94 17.2197H122.54C122.94 17.2197 123.1 17.0312 123.166 16.8693C123.213 16.755 123.231 16.6307 123.217 16.5079C123.203 16.3851 123.158 16.2678 123.086 16.167ZM65.217 5.6136H62.6166C62.5205 5.60797 62.4242 5.62317 62.3344 5.65815C62.2447 5.69313 62.1635 5.74707 62.0965 5.81629C61.979 5.93595 61.8962 6.0853 61.8569 6.24839L59.9361 13.4008H59.4703L57.4175 6.24839C57.3784 6.09719 57.3103 5.95499 57.2172 5.82965C57.1605 5.76097 57.0892 5.7059 57.0084 5.6685C56.9277 5.6311 56.8395 5.61234 56.7505 5.6136H54.0567C53.711 5.6136 53.4973 5.72202 53.4038 5.95142C53.337 6.15333 53.337 6.38352 53.4038 6.58543L56.6971 16.6399C56.7505 16.7884 56.8306 16.9369 56.9508 17.0445C57.0844 17.1663 57.2572 17.2331 57.4434 17.2197H58.8308L58.7106 17.5442L58.4042 18.4752C58.3099 18.758 58.1371 19.0149 57.8975 19.2034C57.6758 19.3738 57.4032 19.4643 57.1237 19.4603C56.8841 19.4603 56.6444 19.4061 56.4308 19.3111C56.2118 19.2161 56.0056 19.0939 55.8172 18.9473C55.6459 18.8251 55.4408 18.7592 55.2304 18.7588H55.2036C55.083 18.7648 54.9659 18.8013 54.8633 18.8649C54.7606 18.9285 54.6758 19.0172 54.6168 19.1225L53.7903 20.3371C53.4572 20.8635 53.6434 21.2013 53.8571 21.3898C54.298 21.7971 54.8209 22.1054 55.3906 22.2941C56.0216 22.5096 56.6839 22.619 57.3507 22.6178C58.537 22.6178 59.537 22.2941 60.2967 21.6467C61.0901 20.9502 61.6684 20.0418 61.9638 19.0282L65.7779 6.58543C65.858 6.36938 65.8714 6.13997 65.7912 5.92392C65.7245 5.77544 65.5768 5.6136 65.217 5.6136Z" fill="#011B33"/>
</g>
<defs>
<clipPath id="clip0_16_2220">
<rect width="123.34" height="22" fill="white" transform="translate(0 0.659912)"/>
</clipPath>
</defs>
</svg>
